<?xml version="1.0" encoding="UTF-8"?>
<svg id="Layer_2" data-name="Layer 2" xmlns="http://www.w3.org/2000/svg" viewBox="0 0 660.75 84.85">
  <defs>
    <style>
      .cls-1, .cls-2 {
        stroke-width: 0px;
      }

      .cls-2 {
        fill: #ec1c24;
      }
    </style>
  </defs>
  <g id="Layer_1-2" data-name="Layer 1">
    <g>
      <polygon class="cls-2" points="14.41 1.54 35.23 43.13 0 83.23 14.41 1.54"/>
      <g>
        <polygon class="cls-1" points="73.66 19.65 65.35 1.62 36.94 1.62 54.4 37.68 73.66 19.65"/>
        <path class="cls-1" d="m141.07,1.62h-50.77L20.83,83.15h27.67l18.15-21.66,10.01,21.66h47.69l6.4-36.33,5.78,20.06,17.3-20.83L141.07,1.62Zm-38.92,75.04l-15.84-33.53,27.48-33.6-11.64,67.13Z"/>
        <polygon class="cls-1" points="490.11 1.8 474.36 83.05 496.82 83.05 512.57 1.8 490.11 1.8"/>
        <polygon class="cls-1" points="566.29 1.8 557.7 48.65 539.01 1.8 517.63 1.8 501.88 83.05 523.2 83.05 531.81 36.77 550.71 83.05 571.54 83.05 587.29 1.8 566.29 1.8"/>
        <polygon class="cls-1" points="270.14 20.46 270.16 20.44 289.72 1.8 273.77 1.8 273.75 1.8 184.43 1.62 138.03 72.05 161.31 72.05 178.98 44.49 172.15 83.15 195.63 83.15 206.51 21.42 224.85 21.42 213.02 83.05 235.48 83.05 247.31 21.42 269.14 21.42 270.14 20.46"/>
        <polygon class="cls-1" points="651.03 83.05 655.17 61.8 638.52 83.05 651.03 83.05"/>
        <path class="cls-1" d="m618.75,54.56h16.96c-3.03,7.44-8.2,10.67-16.74,10.67-12.97,0-14.58-11.69-14.66-16.71-.16-9.2,2.93-18.17,8.07-23.4,3.59-3.65,8.07-5.5,13.32-5.5,10.73,0,12.46,5.44,12.76,10.17l.17,2.64h22.12l-.05-2.87c-.32-18.23-13.86-29.56-35.35-29.56-11.68,0-21.99,4.2-29.81,12.15-8.82,8.98-13.74,22.27-13.49,36.47.4,22.69,14.21,36.23,36.95,36.23,6.24,0,11.88-1.96,16.39-5.61v.66s19.95-19,19.95-19l4.74-24.36h-37.8l-3.54,18.03Z"/>
        <path class="cls-1" d="m446.06,1.8h-29.63l-13.41,69.17L390.3,1.8h-21.02l-40.6,70.84c-.01-.43-.03-.86-.04-1.25-.04-2.46.06-5.04.16-7.41.09-2.13.17-4.11.14-5.72-.1-5.53-1.52-9.72-4.25-12.55,8.06-3.68,13.35-11.86,13.18-21.34-.26-14.98-8.91-22.57-25.7-22.57h-22.39l-21.24,27.11-10.42,54.13h22.36l5.73-29.54h13.34c6.87,0,8.17,2.13,8.24,6.34.04,2.46-.12,4.95-.28,7.44-.17,2.65-.34,5.29-.3,7.91.04,2.09.47,3.97.91,5.72l.54,2.13h38.17l9.23-16.84h24.19l2.73,16.84h24.05l19.95-20.04,8.14-41.59h10.17c9.24,0,13.83,5.08,14.01,15.55.14,8.25-2.37,15.43-7.09,20.23-4.01,4.08-9.52,6.23-15.93,6.23h-8.93l-14.53,19.62h22.96c13.64,0,25.06-4.28,33.02-12.39,8.57-8.72,12.96-21.39,12.7-36.65-.36-20.47-13.26-32.21-35.4-32.21Zm-132.41,30.43c-2.36,2.4-6.77,3.77-12.11,3.77h-11.93l3-15.65h13.44c7.28,0,9.53,1.53,9.62,6.55.04,2.17-.62,3.91-2.01,5.32Zm51.73,15.95l9.71-18.51,2.6,18.51h-12.31Z"/>
      </g>
    </g>
  </g>
</svg>